<svg id="visual" viewBox="0 0 1440 720" width="1440" height="720" xmlns="http://www.w3.org/2000/svg" xmlns:xlink="http://www.w3.org/1999/xlink" version="1.1"><path d="M0 491L120 435.7C240 380.3 480 269.7 720 206C960 142.3 1200 125.7 1320 117.3L1440 109L1440 0L1320 0C1200 0 960 0 720 0C480 0 240 0 120 0L0 0Z" fill="#52452f"></path><path d="M0 577L120 519.3C240 461.7 480 346.3 720 309.2C960 272 1200 313 1320 333.5L1440 354L1440 107L1320 115.3C1200 123.7 960 140.3 720 204C480 267.7 240 378.3 120 433.7L0 489Z" fill="#705e40"></path><path d="M0 721L120 721C240 721 480 721 720 721C960 721 1200 721 1320 721L1440 721L1440 352L1320 331.5C1200 311 960 270 720 307.2C480 344.3 240 459.7 120 517.3L0 575Z" fill="#928267"></path></svg>