<svg id="visual" viewBox="0 0 1440 900" width="1440" height="900" xmlns="http://www.w3.org/2000/svg" xmlns:xlink="http://www.w3.org/1999/xlink" version="1.1"><path d="M0 199L480 118L960 28L1440 145L1440 0L960 0L480 0L0 0Z" fill="#00cc8e"></path><path d="M0 271L480 199L960 55L1440 208L1440 143L960 26L480 116L0 197Z" fill="#00ad86"></path><path d="M0 496L480 280L960 496L1440 289L1440 206L960 53L480 197L0 269Z" fill="#008f79"></path><path d="M0 658L480 406L960 541L1440 415L1440 287L960 494L480 278L0 494Z" fill="#038373"></path><path d="M0 748L480 730L960 694L1440 829L1440 413L960 539L480 404L0 656Z" fill="#008f79"></path><path d="M0 775L480 820L960 829L1440 874L1440 827L960 692L480 728L0 746Z" fill="#00ad86"></path><path d="M0 901L480 901L960 901L1440 901L1440 872L960 827L480 818L0 773Z" fill="#00cc8e"></path></svg>